<svg fill="#fff" xmlns="http://www.w3.org/2000/svg"  viewBox="0 0 50 50" width="64px" height="64px"><path d="M 6 4 C 4.9069372 4 4 4.9069372 4 6 L 4 44 C 4 45.093063 4.9069372 46 6 46 L 44 46 C 45.093063 46 46 45.093063 46 44 L 46 6 C 46 4.9069372 45.093063 4 44 4 L 6 4 z M 6 6 L 44 6 L 44 44 L 6 44 L 6 6 z M 18.78125 14 C 17.407258 14 17.023266 14.160344 16.001953 14.416016 L 16.001953 35.775391 C 16.672953 35.903391 17.148047 36 18.748047 36 C 21.212047 36 23.226359 35.424828 24.443359 34.048828 C 25.403359 32.992828 25.978516 31.552969 25.978516 29.792969 C 25.978516 26.943969 23.87 24.64 21.375 24 L 21.353516 24 C 23.464516 23.168 24.957031 21.391594 24.957031 19.183594 C 24.957031 17.647594 24.478781 16.368656 23.550781 15.472656 C 22.397781 14.416656 20.73325 14 18.78125 14 z M 18.941406 15.919922 C 21.565406 15.919922 22.492188 17.453703 22.492188 19.470703 C 22.492187 21.710703 20.769906 23 18.753906 23 L 18.466797 23 L 18.458984 15.958984 C 18.569984 15.917984 18.794406 15.919922 18.941406 15.919922 z M 34.488281 19.75 C 33.051281 19.75 32.130141 20.402 31.619141 21.875 L 31.494141 22.25 L 31.494141 20 L 29 20 C 29.031 21.152 29 36 29 36 L 31.494141 36 L 31.523438 26.75 C 31.523437 26.206 31.555141 25.757797 31.619141 25.341797 C 31.874141 23.549797 32.924281 22.09375 34.488281 22.09375 C 34.681281 22.09375 34.84 22.093 35 22.125 L 35 19.78125 C 34.84 19.74925 34.680281 19.75 34.488281 19.75 z M 18.447266 25 L 19.050781 25 C 21.354781 25.032 23.419922 26.783766 23.419922 29.759766 C 23.419922 32.542766 21.755516 34.046875 19.228516 34.046875 C 18.684516 34.046875 18.752844 34.015172 18.464844 33.951172 L 18.447266 25 z"/></svg>