<svg width="130" height="130" viewBox="0 0 130 130" fill="none" xmlns="http://www.w3.org/2000/svg">
<mask id="path-1-inside-1_14_26" fill="white">
<path d="M120.9 65C125.926 65 130.065 69.0939 129.364 74.0705C127.891 84.5232 123.887 94.5082 117.641 103.131C109.607 114.222 98.2752 122.492 85.2628 126.761C72.2503 131.03 58.2218 131.08 45.1792 126.904C32.1365 122.728 20.7461 114.539 12.6332 103.506C4.52032 92.4729 0.0995382 79.1591 0.00166013 65.4646C-0.096218 51.77 4.13381 38.3944 12.0882 27.2464C20.0425 16.0983 31.3147 7.74747 44.2964 3.3854C54.3889 -0.00588282 65.1137 -0.85152 75.5303 0.85857C80.4897 1.67276 83.1633 6.84463 81.665 11.6419V11.6419C80.1667 16.4391 75.0538 19.0171 70.0574 18.474C63.3599 17.7461 56.5471 18.4689 50.0934 20.6375C40.7466 23.7782 32.6306 29.7908 26.9035 37.8174C21.1763 45.844 18.1307 55.4744 18.2012 65.3345C18.2717 75.1946 21.4546 84.7805 27.2959 92.7244C33.1372 100.668 41.3383 106.564 50.729 109.571C60.1197 112.578 70.2202 112.542 79.5892 109.468C88.9582 106.394 97.1169 100.44 102.901 92.4542C106.895 86.9404 109.616 80.6529 110.918 74.0429C111.889 69.1119 115.874 65 120.9 65V65Z"/>
</mask>
<path d="M120.9 65C125.926 65 130.065 69.0939 129.364 74.0705C127.891 84.5232 123.887 94.5082 117.641 103.131C109.607 114.222 98.2752 122.492 85.2628 126.761C72.2503 131.03 58.2218 131.08 45.1792 126.904C32.1365 122.728 20.7461 114.539 12.6332 103.506C4.52032 92.4729 0.0995382 79.1591 0.00166013 65.4646C-0.096218 51.77 4.13381 38.3944 12.0882 27.2464C20.0425 16.0983 31.3147 7.74747 44.2964 3.3854C54.3889 -0.00588282 65.1137 -0.85152 75.5303 0.85857C80.4897 1.67276 83.1633 6.84463 81.665 11.6419V11.6419C80.1667 16.4391 75.0538 19.0171 70.0574 18.474C63.3599 17.7461 56.5471 18.4689 50.0934 20.6375C40.7466 23.7782 32.6306 29.7908 26.9035 37.8174C21.1763 45.844 18.1307 55.4744 18.2012 65.3345C18.2717 75.1946 21.4546 84.7805 27.2959 92.7244C33.1372 100.668 41.3383 106.564 50.729 109.571C60.1197 112.578 70.2202 112.542 79.5892 109.468C88.9582 106.394 97.1169 100.44 102.901 92.4542C106.895 86.9404 109.616 80.6529 110.918 74.0429C111.889 69.1119 115.874 65 120.9 65V65Z" stroke="#29E3E3" stroke-width="40" mask="url(#path-1-inside-1_14_26)"/>
</svg>
